<svg xmlns="http://www.w3.org/2000/svg" viewBox="0 0 64 64" role="img" aria-labelledby="title desc">
  <title id="title">AlgoNoteHelper</title>
  <desc id="desc">A dynamic programming grid with a highlighted route</desc>
  <rect x="2" y="2" width="60" height="60" rx="15" fill="#090c0a"/>
  <g fill="#1b211d">
    <rect x="12" y="12" width="11" height="11" rx="2"/>
    <rect x="27" y="12" width="11" height="11" rx="2"/>
    <rect x="42" y="12" width="11" height="11" rx="2"/>
    <rect x="12" y="27" width="11" height="11" rx="2"/>
    <rect x="27" y="27" width="11" height="11" rx="2"/>
    <rect x="42" y="27" width="11" height="11" rx="2"/>
    <rect x="12" y="42" width="11" height="11" rx="2"/>
    <rect x="27" y="42" width="11" height="11" rx="2"/>
    <rect x="42" y="42" width="11" height="11" rx="2"/>
  </g>
  <path d="M17.5 47.5h15v-15h15v-15" fill="none" stroke="#72e07a" stroke-width="5" stroke-linecap="round" stroke-linejoin="round"/>
  <circle cx="17.5" cy="47.5" r="4" fill="#f1f7f2"/>
  <circle cx="47.5" cy="17.5" r="4" fill="#72e07a"/>
</svg>
